<svg id="图层_1" data-name="图层 1" xmlns="http://www.w3.org/2000/svg" viewBox="0 0 388.4 93.38"><defs><style>.cls-1,.cls-5,.cls-6{font-size:74.9px;font-family:HarmonyOS_Sans_SC_Bold, HarmonyOS Sans SC;}.cls-1,.cls-4,.cls-5,.cls-6{fill:#231815;}.cls-1{letter-spacing:-0.02em;}.cls-2{letter-spacing:-0.01em;}.cls-3{letter-spacing:-0.03em;}.cls-5{letter-spacing:-0.01em;}.cls-7{fill:#da362f;}.cls-8{fill:#a62224;}</style></defs><text class="cls-1" transform="translate(0 67.84)">K<tspan class="cls-2" x="54.08" y="0">E</tspan><tspan class="cls-3" x="98.57" y="0">Y</tspan></text><polygon class="cls-4" points="16.73 76.49 16.73 93.38 118.97 93.38 118.97 76.49 112.34 76.49 112.34 86.84 24.17 86.84 24.17 76.49 16.73 76.49"/><polygon class="cls-4" points="118.97 76.49 118.97 93.38 16.73 93.38 16.73 76.49 23.36 76.49 23.36 86.84 111.53 86.84 111.53 76.49 118.97 76.49"/><text class="cls-5" transform="translate(157.92 67.84)">P</text><text class="cls-6" transform="translate(264.37 66.8)">IN<tspan class="cls-3" x="79.24" y="0">T</tspan></text><circle class="cls-7" cx="235.2" cy="40.21" r="26.67"/><circle class="cls-8" cx="219.25" cy="23.91" r="1.39"/><circle class="cls-8" cx="222.86" cy="21.38" r="1.39"/><circle class="cls-8" cx="226.47" cy="18.85" r="1.39"/><circle class="cls-8" cx="214.55" cy="32.58" r="1.39"/><circle class="cls-8" cx="218.16" cy="30.05" r="1.39"/><circle class="cls-8" cx="221.78" cy="27.52" r="1.39"/><circle class="cls-8" cx="225.39" cy="24.99" r="1.39"/><circle class="cls-8" cx="229" cy="22.46" r="1.39"/><circle class="cls-8" cx="213.47" cy="38.72" r="1.39"/><circle class="cls-8" cx="217.08" cy="36.19" r="1.39"/><circle class="cls-8" cx="220.69" cy="33.66" r="1.39"/><circle class="cls-8" cx="224.31" cy="31.13" r="1.39"/><circle class="cls-8" cx="227.92" cy="28.6" r="1.39"/><circle class="cls-8" cx="231.53" cy="26.07" r="1.39"/><circle class="cls-8" cx="216" cy="42.34" r="1.39"/><circle class="cls-8" cx="219.61" cy="39.81" r="1.39"/><circle class="cls-8" cx="223.22" cy="37.28" r="1.39"/><circle class="cls-8" cx="226.84" cy="34.75" r="1.39"/><circle class="cls-8" cx="230.45" cy="32.22" r="1.39"/><circle class="cls-8" cx="234.06" cy="29.69" r="1.39"/><circle class="cls-8" cx="226.47" cy="18.85" r="1.39"/><circle class="cls-8" cx="229" cy="22.46" r="1.39"/><circle class="cls-8" cx="232.62" cy="19.93" r="1.39"/><circle class="cls-8" cx="236.23" cy="17.4" r="1.39"/><circle class="cls-8" cx="231.53" cy="26.07" r="1.39"/><circle class="cls-8" cx="235.15" cy="23.54" r="1.39"/><circle class="cls-8" cx="238.76" cy="21.01" r="1.39"/><circle class="cls-8" cx="242.37" cy="18.49" r="1.39"/><circle class="cls-8" cx="218.53" cy="45.95" r="1.39"/><circle class="cls-8" cx="214.92" cy="48.48" r="1.39"/><circle class="cls-8" cx="216" cy="42.34" r="1.39"/><circle class="cls-8" cx="222.14" cy="43.42" r="1.39"/><circle class="cls-8" cx="225.75" cy="40.89" r="1.39"/><circle class="cls-8" cx="229.37" cy="38.36" r="1.39"/><circle class="cls-8" cx="232.98" cy="35.83" r="1.39"/><circle class="cls-8" cx="236.59" cy="33.3" r="1.39"/><circle class="cls-8" cx="219.61" cy="39.81" r="1.39"/><circle class="cls-8" cx="223.22" cy="37.28" r="1.39"/><circle class="cls-8" cx="226.84" cy="34.75" r="1.39"/><circle class="cls-8" cx="230.45" cy="32.22" r="1.39"/><circle class="cls-8" cx="234.06" cy="29.69" r="1.39"/><circle class="cls-8" cx="221.06" cy="49.56" r="1.39"/><circle class="cls-8" cx="217.44" cy="52.09" r="1.39"/><circle class="cls-8" cx="224.67" cy="47.03" r="1.39"/><circle class="cls-8" cx="228.28" cy="44.5" r="1.39"/><circle class="cls-8" cx="231.9" cy="41.97" r="1.39"/><circle class="cls-8" cx="235.51" cy="39.44" r="1.39"/><circle class="cls-8" cx="239.12" cy="36.91" r="1.39"/><circle class="cls-8" cx="223.59" cy="53.17" r="1.39"/><circle class="cls-8" cx="219.97" cy="55.7" r="1.39"/><circle class="cls-8" cx="227.2" cy="50.64" r="1.39"/><circle class="cls-8" cx="230.81" cy="48.11" r="1.39"/><circle class="cls-8" cx="234.43" cy="45.58" r="1.39"/><circle class="cls-8" cx="238.04" cy="43.05" r="1.39"/><circle class="cls-8" cx="241.65" cy="40.53" r="1.39"/><circle class="cls-8" cx="236.59" cy="33.3" r="1.39"/><circle class="cls-8" cx="240.2" cy="30.77" r="1.39"/><circle class="cls-8" cx="243.82" cy="28.24" r="1.39"/><circle class="cls-8" cx="247.43" cy="25.71" r="1.39"/><circle class="cls-8" cx="251.04" cy="23.18" r="1.39"/><circle class="cls-8" cx="234.06" cy="29.69" r="1.39"/><circle class="cls-8" cx="237.67" cy="27.16" r="1.39"/><circle class="cls-8" cx="241.29" cy="24.63" r="1.39"/><circle class="cls-8" cx="244.9" cy="22.1" r="1.39"/><circle class="cls-8" cx="239.12" cy="36.91" r="1.39"/><circle class="cls-8" cx="242.73" cy="34.38" r="1.39"/><circle class="cls-8" cx="246.35" cy="31.85" r="1.39"/><circle class="cls-8" cx="249.96" cy="29.32" r="1.39"/><circle class="cls-8" cx="253.57" cy="26.79" r="1.39"/><circle class="cls-8" cx="241.65" cy="40.53" r="1.39"/><circle class="cls-8" cx="245.26" cy="38" r="1.39"/><circle class="cls-8" cx="248.88" cy="35.47" r="1.39"/><circle class="cls-8" cx="252.49" cy="32.94" r="1.39"/><circle class="cls-8" cx="256.1" cy="30.41" r="1.39"/><circle class="cls-8" cx="234.06" cy="29.69" r="1.39"/><circle class="cls-8" cx="237.67" cy="27.16" r="1.39"/><circle class="cls-8" cx="241.29" cy="24.63" r="1.39"/><circle class="cls-8" cx="244.9" cy="22.1" r="1.39"/><circle class="cls-8" cx="226.12" cy="56.79" r="1.39"/><circle class="cls-8" cx="222.5" cy="59.32" r="1.39"/><circle class="cls-8" cx="219.97" cy="55.7" r="1.39"/><circle class="cls-8" cx="223.59" cy="53.17" r="1.39"/><circle class="cls-8" cx="229.73" cy="54.26" r="1.39"/><circle class="cls-8" cx="233.34" cy="51.73" r="1.39"/><circle class="cls-8" cx="236.96" cy="49.2" r="1.39"/><circle class="cls-8" cx="240.57" cy="46.67" r="1.39"/><circle class="cls-8" cx="244.18" cy="44.14" r="1.39"/><circle class="cls-8" cx="227.2" cy="50.64" r="1.39"/><circle class="cls-8" cx="230.81" cy="48.11" r="1.39"/><circle class="cls-8" cx="234.43" cy="45.58" r="1.39"/><circle class="cls-8" cx="238.04" cy="43.05" r="1.39"/><circle class="cls-8" cx="241.65" cy="40.53" r="1.39"/><circle class="cls-8" cx="228.65" cy="60.4" r="1.39"/><circle class="cls-8" cx="232.26" cy="57.87" r="1.39"/><circle class="cls-8" cx="235.87" cy="55.34" r="1.39"/><circle class="cls-8" cx="239.48" cy="52.81" r="1.39"/><circle class="cls-8" cx="243.1" cy="50.28" r="1.39"/><circle class="cls-8" cx="246.71" cy="47.75" r="1.39"/><circle class="cls-8" cx="234.79" cy="61.48" r="1.39"/><circle class="cls-8" cx="238.4" cy="58.95" r="1.39"/><circle class="cls-8" cx="242.01" cy="56.42" r="1.39"/><circle class="cls-8" cx="245.63" cy="53.89" r="1.39"/><circle class="cls-8" cx="249.24" cy="51.36" r="1.39"/><circle class="cls-8" cx="240.93" cy="62.57" r="1.39"/><circle class="cls-8" cx="244.54" cy="60.04" r="1.39"/><circle class="cls-8" cx="248.16" cy="57.51" r="1.39"/><circle class="cls-8" cx="251.77" cy="54.98" r="1.39"/><circle class="cls-8" cx="244.18" cy="44.14" r="1.39"/><circle class="cls-8" cx="247.79" cy="41.61" r="1.39"/><circle class="cls-8" cx="251.41" cy="39.08" r="1.39"/><circle class="cls-8" cx="255.02" cy="36.55" r="1.39"/><circle class="cls-8" cx="258.63" cy="34.02" r="1.39"/><circle class="cls-8" cx="241.65" cy="40.53" r="1.39"/><circle class="cls-8" cx="245.26" cy="38" r="1.39"/><circle class="cls-8" cx="248.88" cy="35.47" r="1.39"/><circle class="cls-8" cx="252.49" cy="32.94" r="1.39"/><circle class="cls-8" cx="256.1" cy="30.41" r="1.39"/><circle class="cls-8" cx="246.71" cy="47.75" r="1.39"/><circle class="cls-8" cx="250.32" cy="45.22" r="1.39"/><circle class="cls-8" cx="253.94" cy="42.69" r="1.39"/><circle class="cls-8" cx="257.55" cy="40.16" r="1.39"/><circle class="cls-8" cx="249.24" cy="51.36" r="1.39"/><circle class="cls-8" cx="252.85" cy="48.83" r="1.39"/><circle class="cls-8" cx="256.47" cy="46.3" r="1.39"/><circle class="cls-8" cx="244.54" cy="60.04" r="1.39"/><circle class="cls-8" cx="248.16" cy="57.51" r="1.39"/><circle class="cls-8" cx="251.77" cy="54.98" r="1.39"/><circle class="cls-8" cx="251.77" cy="54.98" r="1.39"/><circle class="cls-8" cx="251.77" cy="54.98" r="1.39"/></svg>